<svg xmlns="http://www.w3.org/2000/svg" shape-rendering="geometricPrecision" text-rendering="geometricPrecision" image-rendering="optimizeQuality" fill-rule="evenodd" clip-rule="evenodd" viewBox="0 0 512 425.412"><path fill-rule="nonzero" d="M0 150.169c0-22.942 1.988-42.817 5.958-59.6 4.116-17.381 10.403-31.563 18.859-42.521 8.536-11.056 18.525-19.372 29.948-24.934 11.453-5.572 24.226-8.36 38.32-8.36 9.406 0 17.888 1.343 25.426 4.017 7.839 2.784 14.578 6.992 20.202 12.612 5.29 5.286 9.776 11.464 13.448 18.507h.041c3.561 6.834 6.357 14.52 8.363 23.038 1.893 8.015 3.324 16.606 4.281 25.744.954 9.149 1.439 18.625 1.439 28.404 0 3.819-.067 9.399-.202 16.923a1445.46 1445.46 0 01-.477 19.299l-.081 2.513c3.61-10.605 7.293-20.213 11.049-28.811 5.771-13.206 11.574-24.472 17.403-33.801 6.035-9.655 12.23-17.425 18.58-23.298 6.402-5.92 12.726-10.4 18.94-13.412 6.757-3.275 13.434-4.915 20.008-4.915 7.12 0 14.211 1.614 21.258 4.838 6.632 3.034 13.184 7.539 19.618 13.489 6.274 5.804 12.491 13.416 18.629 22.828 5.942 9.109 11.907 20.037 17.879 32.763 4.538 9.666 9.036 20.649 13.474 32.942-1.192-23.507-1.79-44.567-1.79-63.166 0-17.238 1.72-32.333 5.154-45.275 3.566-13.438 9.028-24.567 16.365-33.379 7.425-8.903 16.339-15.591 26.731-20.044C399.043 2.19 410.573 0 423.402 0c31.265 0 54.075 10.994 68.393 32.975 6.801 10.433 11.889 22.583 15.246 36.427C510.346 83.008 512 98.173 512 114.89c0 23.68-1.419 49.138-4.247 76.354a982.792 982.792 0 01-4.935 39.74 895.74 895.74 0 01-6.408 38.341c-2.348 12.403-4.971 24.205-7.843 35.378-2.869 11.149-5.935 21.409-9.197 30.76-4.857 14.208-10.363 26.772-16.489 37.671-6.233 11.096-13.148 20.499-20.716 28.187-7.894 8.016-16.889 14.05-26.951 18.074-10.022 4.01-20.976 6.017-32.862 6.017-16.76 0-33.943-5.404-51.544-16.2-8.918-5.466-17.487-13.067-25.682-22.773-7.931-9.395-15.599-20.87-22.987-34.417-7.395-13.566-14.068-29.718-19.996-48.452-2.659-8.4-5.187-17.359-7.583-26.871-2.223 8.291-4.593 16.13-7.101 23.522-6.053 17.828-12.965 33.099-20.716 45.799-7.726 12.653-15.778 23.423-24.145 32.301-8.58 9.101-17.546 16.261-26.886 21.46-9.072 5.051-18.004 8.866-26.775 11.416-9.024 2.63-17.81 3.947-26.35 3.947-12.33 0-23.874-2.208-34.623-6.611-10.689-4.383-20.443-10.924-29.247-19.6-8.673-8.558-16.259-19.472-22.741-32.729-6.291-12.865-11.552-27.953-15.767-45.231-2.19-8.456-4.189-17.3-6.005-26.508a565.609 565.609 0 01-4.784-28.07 1122.365 1122.365 0 01-3.804-28.486 1050.113 1050.113 0 01-2.978-28.121c-.877-9.457-1.534-18.243-1.955-26.339C.228 164.813 0 157.047 0 150.169zm52.689-53.892c1.207-3.83 5.297-5.954 9.127-4.747 3.83 1.207 5.954 5.297 4.747 9.127-2.924 9.222-5.176 19.941-6.706 32.186-1.54 12.33-2.366 26.02-2.417 41.094a7.257 7.257 0 01-7.253 7.252 7.256 7.256 0 01-7.252-7.252c.055-15.965.902-30.239 2.476-42.855 1.643-13.151 4.087-24.739 7.278-34.805zm-6.852 100.514a7.267 7.267 0 015.968-8.361 7.266 7.266 0 018.36 5.969l.668 3.921a7.267 7.267 0 01-5.969 8.361 7.267 7.267 0 01-8.36-5.969l-.667-3.921zM24.835 94.964c-3.613 15.275-5.422 33.679-5.422 55.205 0 7.242.202 14.681.602 22.297a633.78 633.78 0 001.882 25.576c.781 8.415 1.783 17.626 2.978 27.593a1126.02 1126.02 0 003.724 28.03 542.107 542.107 0 004.637 27.088 469.577 469.577 0 005.752 25.451v.114c3.899 16.016 8.687 29.824 14.347 41.397 5.488 11.226 11.812 20.371 18.955 27.418 7.017 6.918 14.699 12.091 23.026 15.506 8.276 3.39 17.373 5.092 27.271 5.092 6.86 0 13.851-1.038 20.964-3.111 7.359-2.139 14.956-5.392 22.763-9.743 7.553-4.204 14.952-10.15 22.182-17.821 7.451-7.906 14.696-17.616 21.717-29.116 6.989-11.453 13.295-25.44 18.896-41.933 5.627-16.578 10.529-35.65 14.692-57.205.609-4.777 4.688-8.47 9.63-8.47h2.564c4.56.014 8.631 3.246 9.515 7.886 4.41 23.086 9.454 43.599 15.129 61.512 5.605 17.714 11.776 32.733 18.485 45.04 6.717 12.319 13.654 22.711 20.785 31.16 6.871 8.136 13.87 14.394 20.98 18.753 14.468 8.873 28.29 13.316 41.463 13.316 9.49 0 18.045-1.526 25.657-4.571 7.568-3.027 14.362-7.594 20.356-13.68 6.321-6.419 12.197-14.457 17.612-24.093 5.521-9.828 10.55-21.329 15.07-34.48l.04-.036c3.151-9.032 6.071-18.775 8.757-29.212 2.674-10.4 5.19-21.794 7.534-34.167a872.59 872.59 0 006.262-37.506 963.849 963.849 0 004.854-38.983c2.725-26.23 4.094-51.031 4.094-74.381 0-15.352-1.453-29.002-4.351-40.939-2.836-11.695-7.062-21.845-12.664-30.44-10.462-16.06-27.861-24.098-52.171-24.098-10.265 0-19.267 1.658-27 4.971-7.564 3.239-14.053 8.107-19.453 14.585-5.484 6.585-9.655 15.242-12.498 25.954-2.975 11.211-4.465 24.663-4.465 40.345 0 19.853.631 41.721 1.886 65.572a2955.395 2955.395 0 002.072 35.342 2599.882 2599.882 0 002.37 33.143l.085 1.277c0 5.36-4.347 9.707-9.707 9.707h-2.561c-4.303-.033-8.231-2.924-9.361-7.282-5.492-21.112-11.046-40.015-16.651-56.677-5.561-16.522-11.145-30.752-16.742-42.67-5.562-11.849-11.098-22-16.589-30.415-5.293-8.118-10.477-14.52-15.525-19.189-4.886-4.52-9.739-7.883-14.534-10.077-4.383-2.007-8.8-3.012-13.224-3.012-3.684 0-7.55.983-11.593 2.942-4.57 2.216-9.324 5.605-14.236 10.147-4.975 4.6-10.063 11.06-15.25 19.358-5.389 8.624-10.763 19.061-16.111 31.299-5.345 12.234-10.664 27.101-15.94 44.574-5.29 17.52-10.425 37.219-15.385 59.08-.668 4.713-4.717 8.338-9.611 8.338h-2.572l-.946-.077c-5.316-.521-9.204-5.261-8.683-10.576a891.867 891.867 0 001.731-19.776 1114.53 1114.53 0 001.438-21.178c.445-7.63.822-14.843 1.123-21.618.33-7.304.602-14.215.803-20.712v-.099c.217-6.926.382-13.272.477-18.991.081-4.512.121-10.128.121-16.622 0-9.449-.432-18.264-1.284-26.43-.858-8.17-2.157-15.954-3.899-23.324-1.618-6.867-3.859-13.037-6.699-18.488-2.699-5.257-6.023-9.835-9.922-13.731-3.563-3.562-7.906-6.255-12.998-8.063-5.392-1.912-11.724-2.873-18.984-2.873-11.137 0-21.085 2.132-29.831 6.387-8.764 4.266-16.478 10.712-23.125 19.321-6.717 8.706-11.82 20.408-15.294 35.089z"/></svg>